<svg id="Group_883" data-name="Group 883" xmlns="http://www.w3.org/2000/svg" xmlns:xlink="http://www.w3.org/1999/xlink" width="58" height="67.004" viewBox="0 0 58 67.004">
  <defs>
    <linearGradient id="linear-gradient" x1="1.072" x2="-0.104" y2="1.399" gradientUnits="objectBoundingBox">
      <stop offset="0" stop-color="#55ccc9" stop-opacity="0.569"/>
      <stop offset="1" stop-color="#011689"/>
    </linearGradient>
    <clipPath id="clip-path">
      <rect id="Rectangle_772" data-name="Rectangle 772" width="58" height="67.004" fill="url(#linear-gradient)"/>
    </clipPath>
  </defs>
  <g id="Group_882" data-name="Group 882" transform="translate(0)" clip-path="url(#clip-path)">
    <path id="Path_754" data-name="Path 754" d="M20.1,67a5.26,5.26,0,0,1-5.235-5.231v-11H10.994a5.259,5.259,0,0,1-5.233-5.235v-20.1a1.047,1.047,0,1,1,2.094,0v20.1A3.159,3.159,0,0,0,11,48.683h3.87v-11.1A5.26,5.26,0,0,1,20.1,32.351H46.173V29.225a4.137,4.137,0,0,0-4.136-4.1H34.761a6.354,6.354,0,0,1-6.022-4.386,1.047,1.047,0,0,1,1.991-.65,4.262,4.262,0,0,0,4.037,2.943h7.281a6.231,6.231,0,0,1,6.219,6.17v3.148h4.5A5.258,5.258,0,0,1,58,37.584V61.77A5.259,5.259,0,0,1,52.77,67ZM16.961,49.736V61.77a3.16,3.16,0,0,0,3.144,3.141H52.766a3.16,3.16,0,0,0,3.141-3.144V37.586a3.16,3.16,0,0,0-3.141-3.141H20.1a3.16,3.16,0,0,0-3.141,3.144V49.736Zm30.884,13.5H45.019a1.047,1.047,0,1,1,0-2.093h2.827a1.047,1.047,0,1,1,0,2.093m-9.946,0H34.969a1.047,1.047,0,1,1,0-2.093H37.9a1.047,1.047,0,1,1,0,2.093m-10.05,0H25.023a1.047,1.047,0,1,1,0-2.093h2.827a1.047,1.047,0,1,1,0,2.093m23.87-3.769H21.149A1.047,1.047,0,0,1,20.1,58.42V38.633a1.047,1.047,0,0,1,1.047-1.047H51.72a1.047,1.047,0,0,1,1.047,1.047V58.42a1.047,1.047,0,0,1-1.047,1.047M22.2,57.373H50.673V39.68H22.2Zm14.238-2.2a1.044,1.044,0,0,1-.62-.2c-.244-.18-5.975-4.449-5.975-9.009a4.091,4.091,0,0,1,4.082-4.083h.041a3.956,3.956,0,0,1,2.473.863,3.965,3.965,0,0,1,2.481-.863h.005a3.781,3.781,0,0,1,2.8,1.043,4.186,4.186,0,0,1,1.313,3.04c0,4.56-5.731,8.83-5.975,9.009a1.045,1.045,0,0,1-.62.2m-2.483-11.2h-.02a2,2,0,0,0-2,1.99c0,2.554,2.84,5.45,4.5,6.833,1.661-1.386,4.5-4.286,4.5-6.834a2.083,2.083,0,0,0-.653-1.514,1.688,1.688,0,0,0-1.271-.477c-.025,0-.048,0-.077,0a1.87,1.87,0,0,0-1.619.877,1.047,1.047,0,0,1-1.765,0,1.887,1.887,0,0,0-1.6-.877M4.134,22.3H4.056A4.132,4.132,0,0,1,0,18.093V4.189c0-.031,0-.082,0-.133A4.126,4.126,0,0,1,4.208,0H9.556a4.131,4.131,0,0,1,4.055,4.205V18.112c0,.031,0,.082,0,.133A4.143,4.143,0,0,1,9.4,22.3H4.134m5.29-2.094a2.057,2.057,0,0,0,2.094-2V4.188a2.038,2.038,0,0,0-2-2.093H4.189a2.043,2.043,0,0,0-2.094,2V18.112a2.039,2.039,0,0,0,2,2.094Zm20-3.035c-3.521,0-6.386-3.851-6.386-8.585S25.9,0,29.42,0h0c3.521,0,6.386,3.851,6.386,8.585s-2.865,8.585-6.386,8.585m0-15.076c-2.327,0-4.293,2.973-4.293,6.491s1.966,6.491,4.292,6.491,4.293-2.973,4.293-6.491S31.747,2.1,29.42,2.1" transform="translate(0 0)" fill="url(#linear-gradient)"/>
  </g>
</svg>
