<svg id="Propharma__logo" xmlns="http://www.w3.org/2000/svg" xmlns:xlink="http://www.w3.org/1999/xlink" width="213.667" height="73.819" viewBox="0 0 213.667 73.819">
  <defs>
    <linearGradient id="linear-gradient" x1="0.5" y1="0.187" x2="0.5" y2="2.097" gradientUnits="objectBoundingBox">
      <stop offset="0" stop-color="#001689"/>
      <stop offset="1" stop-color="#55ccc9"/>
    </linearGradient>
  </defs>
  <ellipse id="Ellipse_24" data-name="Ellipse 24" cx="106.833" cy="36.91" rx="106.833" ry="36.91" transform="translate(0 0)" fill="url(#linear-gradient)"/>
  <g id="Group_706" data-name="Group 706" transform="translate(28.789 24.957)">
    <rect id="Rectangle_735" data-name="Rectangle 735" width="4.562" height="4.459" transform="translate(0 8.931)" fill="#fff"/>
    <rect id="Rectangle_736" data-name="Rectangle 736" width="4.936" height="5.997" transform="translate(4.542 13.374)" fill="#fff"/>
    <path id="Path_612" data-name="Path 612" d="M108.575,74.83H100v8.941h4.893V79.192h2.785a2.077,2.077,0,0,1,2.235,1.971v.71a2,2,0,0,1-2.235,1.858l-2.785.04V88.2h3.682a5.922,5.922,0,0,0,6.117-5.706V80.536a5.922,5.922,0,0,0-6.117-5.706Z" transform="translate(-95.438 -74.83)" fill="#fff"/>
    <path id="Path_613" data-name="Path 613" d="M153.85,88.7h4.136v1.547h.053a3.627,3.627,0,0,1,3.685-2.044v4.379c-2.041.053-3.472.474-3.472,2.675v8h-4.4Z" transform="translate(-131.328 -83.741)" fill="#fff"/>
    <path id="Path_614" data-name="Path 614" d="M189.911,88.27a7.748,7.748,0,1,1-7.791,7.747A7.585,7.585,0,0,1,189.911,88.27Zm0,11.423a3.682,3.682,0,1,0-3.465-3.675A3.541,3.541,0,0,0,189.911,99.693Z" transform="translate(-150.17 -83.788)" fill="#fff"/>
    <path id="Path_615" data-name="Path 615" d="M237.79,88.857h4.135v1.6h.08a5.609,5.609,0,0,1,4.586-2.1c5.219,0,7.18,4.536,7.18,7.921,0,4.2-2.968,7.631-7.154,7.631a5.64,5.64,0,0,1-4.426-1.811v6.163h-4.4V88.857Zm11.579,7.291a3.682,3.682,0,1,0-3.682,3.7,3.659,3.659,0,0,0,3.682-3.7Z" transform="translate(-187.273 -83.848)" fill="#fff"/>
    <path id="Path_616" data-name="Path 616" d="M294.74,75.3h4.386v6.19h.053a4.111,4.111,0,0,1,3.779-1.834,5.348,5.348,0,0,1,3.989,1.6c1.241,1.444,1.374,2.728,1.374,5.323V94.71h-4.386V86.789c0-.707,0-3.042-2.351-3.042s-2.458,2.178-2.458,2.885V94.71H294.74V75.3Z" transform="translate(-225.23 -75.143)" fill="#fff"/>
    <path id="Path_617" data-name="Path 617" d="M359.925,103.4h-4.049v-1.574h-.053c-.767,1.417-2.651,2.071-4.432,2.071-4.813,0-7.631-3.619-7.631-7.791a7.5,7.5,0,0,1,7.631-7.764,5.006,5.006,0,0,1,4.432,2.044h.053V88.837h4.049v14.554Zm-7.851-3.565a3.712,3.712,0,1,0-3.775-3.672A3.7,3.7,0,0,0,352.074,99.833Z" transform="translate(-257.901 -83.834)" fill="#fff"/>
    <path id="Path_618" data-name="Path 618" d="M524.8,103.4h-4.049v-1.574h-.053c-.767,1.417-2.651,2.071-4.432,2.071-4.812,0-7.631-3.619-7.631-7.791a7.5,7.5,0,0,1,7.631-7.764,5.006,5.006,0,0,1,4.432,2.044h.053V88.837H524.8v14.554Zm-7.851-3.565a3.712,3.712,0,1,0-3.775-3.672A3.7,3.7,0,0,0,516.944,99.833Z" transform="translate(-367.785 -83.834)" fill="#fff"/>
    <path id="Path_619" data-name="Path 619" d="M402.713,88.857h4.209V90.4h.053c.377-.707,1.161-2.044,3.749-2.044v4.379c-2.078.053-3.535.474-3.535,2.675v8H402.71V88.857Z" transform="translate(-297.191 -83.848)" fill="#fff"/>
    <path id="Path_620" data-name="Path 620" d="M433.61,88.857h4.1V90.4h.053c.344-.6,1.294-2.044,4.046-2.044a4.587,4.587,0,0,1,4.229,2.6,5.6,5.6,0,0,1,8.511-1.131c1.374,1.444,1.588,2.411,1.588,5.64v7.948h-4.389V95.677c0-1.181,0-3.225-2.248-3.225-2.431,0-2.431,2.2-2.431,3.015v7.948h-4.389V95.494c0-.787,0-3.042-2.194-3.042C438,92.452,438,94.813,438,95.677v7.737H433.61V88.86Z" transform="translate(-317.785 -83.848)" fill="#fff"/>
  </g>
</svg>
